<svg width="20" height="16" viewBox="0 0 20 16" fill="none" xmlns="http://www.w3.org/2000/svg">
<g clip-path="url(#clip0_1_136)">
<path d="M6.02677 3.36695C5.72696 2.35127 4.91318 2.46259 4.35677 2.93565C2.98614 4.20173 1.20148 6.85915 2.34368 10.6857C3.30025 13.9274 7.28058 16.0005 7.28058 16.0005H2.64058C2.64058 16.0005 0.24475 13.3152 0.0305776 10.157C-0.240682 6.16397 1.35851 3.64566 3.21456 2.00397C4.95639 0.459604 6.61257 0.000488281 6.61257 0.000488281L10.0004 11.1005L13.3882 0.000488281C13.3882 0.000488281 15.0444 0.459605 16.7862 2.00397C18.6423 3.64566 20.2415 6.16397 19.9702 10.157C19.756 13.3152 17.3602 16.0005 17.3602 16.0005H12.7202C12.7202 16.0005 16.7002 13.9274 17.6571 10.6857C18.7993 6.85958 17.0147 4.20216 15.644 2.93565C15.0872 2.46259 14.2734 2.35127 13.974 3.36695C12.9461 6.60869 10.0008 15.897 10.0008 15.897C10.0008 15.897 7.05558 6.60559 6.02761 3.36695H6.02677Z" fill="white"/>
</g>
<defs>
<clipPath id="clip0_1_136">
<rect width="20" height="16" fill="white"/>
</clipPath>
</defs>
</svg>
